<svg id="Capa_1" enable-background="new 0 0 511.998 511.998" height="512" viewBox="0 0 511.998 511.998" width="512" xmlns="http://www.w3.org/2000/svg"><g><g><path d="m498.273 70.362h-15.332c-1.304-4.232-3.058-8.263-5.204-12.033l11-11c2.427-2.437 2.427-6.378 0-8.804l-15.161-15.161c-2.437-2.427-6.367-2.427-8.804 0l-11.291 11.301c-3.7-1.986-7.631-3.6-11.742-4.783v-16.055c0-3.44-2.788-6.227-6.227-6.227h-21.438c-3.44 0-6.217 2.787-6.217 6.227v16.054c-4.111 1.183-8.042 2.797-11.752 4.783l-11.291-11.301c-2.427-2.427-6.367-2.427-8.794 0l-15.161 15.161c-2.437 2.427-2.437 6.367 0 8.804l11 11c-2.146 3.77-3.901 7.801-5.214 12.033h-15.332c-3.439 0-6.217 2.788-6.217 6.227v21.439c0 3.429 2.778 6.217 6.217 6.217h14.75c1.213 4.482 2.918 8.764 5.064 12.765l-10.268 10.278c-2.437 2.427-2.437 6.367 0 8.794l15.161 15.161c2.427 2.427 6.367 2.427 8.794 0l9.977-9.977c4.081 2.326 8.463 4.181 13.065 5.515v14.008c0 3.439 2.778 6.217 6.217 6.217h21.438c3.439 0 6.227-2.778 6.227-6.217v-14.008c4.603-1.334 8.974-3.189 13.056-5.515l9.977 9.977c2.437 2.427 6.367 2.427 8.804 0l15.161-15.161c2.427-2.427 2.427-6.367 0-8.794l-10.278-10.278c2.146-4.001 3.86-8.283 5.074-12.765h14.74c3.439 0 6.227-2.788 6.227-6.217v-21.438c.001-3.44-2.787-6.227-6.226-6.227zm-73.48 38.224c-11.191 0-20.265-9.065-20.265-20.255s9.075-20.265 20.265-20.265 20.265 9.075 20.265 20.265-9.075 20.255-20.265 20.255z" fill="#edf4ff"/><g fill="#dbeaff"><path d="m424.793 108.586s-15.292 0-18.651 0c-11.19 0-20.265-9.065-20.265-20.255s9.075-20.265 20.265-20.265h18.651c-11.191 0-20.265 9.075-20.265 20.265s9.074 20.255 20.265 20.255z"/><path d="m423.08 13.823v16.054c4.111 1.189 18.656-2.128 18.656-2.128v-13.926c0-3.436-2.786-6.222-6.222-6.222h-18.656c3.436 0 6.222 2.786 6.222 6.222z"/><path d="m498.276 70.364h-15.336c-1.305-4.229-3.06-8.26-5.207-12.04l10.999-10.999c2.43-2.43 2.43-6.369 0-8.798l-15.16-15.16c-2.43-2.43-6.369-2.43-8.798 0l-6.769 6.768c1.884-.409 3.847.168 5.211 1.532l6.86 6.86c2.43 2.43 2.43 6.369 0 8.798l-10.999 10.999c2.147 3.78 3.901 7.811 5.207 12.04h15.336c3.436 0 6.222 2.785 6.222 6.222v21.44c0 3.436-2.785 6.222-6.222 6.222h-14.747c-1.212 4.482-2.921 8.758-5.068 12.767l10.272 10.272c2.43 2.43 2.43 6.369 0 8.799l-7.289 7.289c-1.12 1.12-2.66 1.716-4.242 1.642l6.229 6.229c2.43 2.43 6.369 2.43 8.798 0l15.16-15.16c2.43-2.43 2.43-6.369 0-8.799l-10.272-10.272c2.147-4.008 3.856-8.285 5.068-12.767h14.747c3.436 0 6.222-2.785 6.222-6.222v-21.44c0-3.437-2.786-6.222-6.222-6.222z"/><path d="m423.08 146.778v14.009c0 3.436-2.786 6.222-6.222 6.222h18.656c3.436 0 6.222-2.786 6.222-6.222v-13.926c0 .001-14.055-1.414-18.656-.083z"/></g><path d="m200.2 413.064c-54.488 0-98.659-44.171-98.659-98.659s44.171-98.659 98.659-98.659 98.659 44.171 98.659 98.659-44.172 98.659-98.659 98.659zm176.221-142.326h-21.057c-3.921-13.958-9.677-27.144-16.987-39.297l15.392-15.392c6.438-6.427 6.438-16.866 0-23.304l-34.625-34.614c-6.427-6.437-16.866-6.437-23.304 0l-16.094 16.094c-11.993-6.819-24.938-12.143-38.585-15.713v-23.033c0-9.105-7.38-16.485-16.485-16.485h-48.954c-9.105 0-16.485 7.38-16.485 16.485v23.033c-13.647 3.57-26.593 8.894-38.585 15.713l-16.094-16.094c-6.437-6.437-16.876-6.437-23.304 0l-34.624 34.615c-6.437 6.438-6.437 16.876 0 23.304l15.392 15.392c-7.31 12.153-13.066 25.339-16.986 39.297h-21.057c-9.105 0-16.475 7.38-16.475 16.475v48.964c0 9.105 7.37 16.475 16.475 16.475h19.643c3.57 14.66 9.135 28.528 16.395 41.303l-13.387 13.385c-6.437 6.438-6.437 16.866 0 23.304l34.625 34.625c6.428 6.437 16.866 6.437 23.304 0l12.675-12.685c12.935 7.781 27.044 13.798 42.005 17.718v17.618c0 9.095 7.38 16.475 16.485 16.475h48.954c9.105 0 16.485-7.38 16.485-16.475v-17.618c14.961-3.921 29.069-9.937 42.005-17.718l12.674 12.685c6.437 6.437 16.876 6.437 23.304 0l34.625-34.625c6.438-6.438 6.438-16.866 0-23.304l-13.387-13.387c7.26-12.775 12.825-26.643 16.395-41.303h19.644c9.105 0 16.475-7.37 16.475-16.475v-48.964c-.003-9.093-7.373-16.474-16.477-16.474z" fill="#c3aff0"/><g fill="#aa96e6"><path d="m220.497 135.477v23.031h20.662v-23.031c0-9.101-7.378-16.479-16.479-16.479h-20.662c9.101 0 16.479 7.378 16.479 16.479z"/><path d="m189.869 412.527c-49.632-5.165-88.328-47.123-88.328-98.122s38.696-92.957 88.328-98.122c-3.396-.353-6.842-.537-10.331-.537-54.488 0-98.659 44.171-98.659 98.659s44.171 98.659 98.659 98.659c3.489 0 6.935-.183 10.331-.537z"/><path d="m298.261 157.103c2.269.036 4.435.959 5.996 2.606l30.949 32.647c6.435 6.436 4.336 17.262-2.099 23.697l-15.388 15.389c7.31 12.149 13.063 25.338 16.984 39.296h20.661c-3.92-13.958-9.674-27.148-16.984-39.296l15.389-15.389c6.435-6.435 6.435-16.869 0-23.305l-34.62-34.621c-6.012-6.012-15.512-6.404-21.983-1.183.131.107.556.151 1.095.159z"/><path d="m85.274 157.289 23.048 23.048c4.443-2.527 7.639-4.007 12.333-6.111l-16.098-16.099c-6.012-6.012-15.512-6.404-21.983-1.183-.002.001 1.707-.498 2.7.345z"/><path d="m392.895 287.213v48.964c0 9.105-7.37 16.475-16.475 16.475h-19.644c-3.57 14.66-9.135 28.528-16.395 41.303l13.387 13.387c6.438 6.438 6.438 16.866 0 23.304l-34.625 34.625c-6.427 6.437-16.866 6.437-23.304 0 2.346.06 4.603-.862 6.237-2.537l31.035-32.088c6.428-6.438 6.428-16.866 0-23.304l-13.396-13.387c7.27-12.775 12.835-26.643 16.395-41.303h19.643c9.105 0 16.485-7.37 16.485-16.475v-48.964c0-9.095-7.38-16.475-16.485-16.475h20.667c9.105 0 16.475 7.381 16.475 16.475z"/><path d="m220.497 470.303v17.615c0 9.101-7.378 16.479-16.479 16.479h20.662c9.101 0 16.479-7.378 16.479-16.479v-17.615z"/><path d="m105.915 446.381-19.899 19.898c-1.363.89-3.444.17-3.444.17 6.471 5.221 15.971 4.829 21.983-1.183l12.681-12.679c-4.602-2.204-6.973-3.59-11.321-6.206z"/></g><path d="m269.509 314.408c0 32.458-22.321 59.703-52.443 67.233-5.395 1.354-11.05 2.076-16.866 2.076-38.275 0-69.309-31.035-69.309-69.309 0-.903.02-1.805.06-2.707.832-21.97 11.902-41.313 28.578-53.406 11.421-8.303 25.479-13.196 40.671-13.196 29.149 0 54.108 18.009 64.335 43.509 3.209 7.971 4.974 16.685 4.974 25.8z" fill="#edf4ff"/><path d="m264.535 288.607c-10.228-25.5-35.186-43.509-64.335-43.509-3.504 0-6.945.272-10.31.774 24.606 3.688 44.991 20.312 53.984 42.734 3.209 7.972 4.974 16.685 4.974 25.8 0 32.458-22.321 59.703-52.443 67.233-2.143.538-4.328.971-6.547 1.304 3.375.505 6.827.772 10.343.772 5.816 0 11.471-.722 16.866-2.076 30.122-7.531 52.443-34.775 52.443-67.233-.001-9.113-1.766-17.827-4.975-25.799z" fill="#dbeaff"/><path d="m180.997 286.361-6.758 17.237c-1.915 4.883-6.628 8.102-11.872 8.102h-31.416c.832-21.97 11.902-41.313 28.578-53.406l17.347 13.266c4.522 3.46 6.207 9.497 4.121 14.801z" fill="#ccf49f"/><path d="m176.876 271.561-17.347-13.266c-3.465 2.513-6.684 5.343-9.624 8.441l6.31 4.825c4.522 3.459 6.207 9.496 4.121 14.8l-6.758 17.237c-1.915 4.883-6.628 8.102-11.872 8.102h20.662c5.244 0 9.957-3.219 11.872-8.102l6.758-17.237c2.085-5.304.4-11.341-4.122-14.8z" fill="#b3e59f"/><path d="m269.509 314.408c0 32.458-22.321 59.703-52.443 67.233l.471-9.275.792-15.563c.221-4.382-1.985-8.523-5.746-10.789l-3.64-2.176c-5.495-3.299-7.39-10.368-4.272-15.963l18.47-33.161c2.096-3.77 6.067-6.107 10.378-6.107h31.015c3.21 7.972 4.975 16.686 4.975 25.801z" fill="#ccf49f"/><path d="m269.509 314.408c0 32.458-22.321 59.703-52.443 67.233l.471-9.275c18.851-12.384 31.306-33.722 31.306-57.958 0-9.115-1.765-17.829-4.974-25.8h20.666c3.209 7.971 4.974 16.685 4.974 25.8z" fill="#b3e59f"/></g><g><path d="m338.727 319.152c4.116 0 7.452-3.336 7.452-7.452s-3.336-7.452-7.452-7.452c-4.115 0-7.452 3.336-7.452 7.452s3.336 7.452 7.452 7.452z"/><path d="m498.276 62.864h-10.045c-.419-1.042-.864-2.074-1.334-3.096l7.14-7.14c5.35-5.35 5.35-14.055 0-19.405l-15.16-15.16c-5.352-5.351-14.055-5.351-19.406 0l-7.53 7.531c-.895-.387-1.796-.755-2.705-1.104v-10.667c0-7.566-6.155-13.722-13.722-13.722h-21.439c-7.566 0-13.722 6.156-13.722 13.722v10.667c-.909.348-1.811.716-2.704 1.104l-7.531-7.531c-5.352-5.35-14.054-5.349-19.405 0l-15.16 15.16c-5.35 5.35-5.35 14.055 0 19.405l7.14 7.139c-.471 1.021-.916 2.054-1.335 3.096h-10.045c-7.565 0-13.721 6.155-13.721 13.722v21.44c0 7.566 6.155 13.721 13.721 13.721h9.264c.459 1.256.954 2.5 1.485 3.727l-6.509 6.509c-2.591 2.592-4.019 6.038-4.019 9.703s1.428 7.111 4.019 9.703l15.16 15.16c5.352 5.349 14.054 5.35 19.405 0l6.117-6.117c1.354.623 2.728 1.202 4.118 1.735v8.622c0 7.566 6.155 13.722 13.722 13.722h21.439c7.566 0 13.722-6.156 13.722-13.722v-8.622c1.391-.533 2.765-1.112 4.118-1.735l6.117 6.117c5.352 5.351 14.055 5.351 19.406 0l15.16-15.16c5.35-5.35 5.35-14.055 0-19.405l-6.51-6.509c.532-1.228 1.027-2.47 1.485-3.727h9.264c7.566 0 13.722-6.155 13.722-13.721v-21.44c0-7.567-6.155-13.722-13.722-13.722zm-1.278 33.882h-13.469c-3.388 0-6.355 2.271-7.24 5.542-1.049 3.881-2.543 7.643-4.438 11.182-1.563 2.914-1.031 6.507 1.307 8.845l9.369 9.369-13.353 13.353-9.072-9.073c-2.387-2.387-6.072-2.884-9.008-1.218-3.613 2.052-7.463 3.676-11.442 4.828-3.208.928-5.416 3.865-5.416 7.205v12.73h-18.883v-12.73c0-3.339-2.208-6.276-5.415-7.205-3.98-1.152-7.831-2.776-11.443-4.828-2.934-1.666-6.62-1.169-9.008 1.218l-9.071 9.072-13.353-13.352 9.368-9.369c2.337-2.338 2.868-5.93 1.308-8.844-1.897-3.543-3.392-7.306-4.439-11.183-.885-3.271-3.853-5.542-7.24-5.542h-13.468v-18.882h14.057c3.29 0 6.196-2.145 7.167-5.289 1.127-3.655 2.662-7.203 4.562-10.545 1.667-2.935 1.168-6.622-1.218-9.008l-10.096-10.095 13.353-13.352 10.39 10.391c2.338 2.338 5.932 2.869 8.845 1.308 3.271-1.752 6.733-3.163 10.288-4.191 3.207-.928 5.415-3.865 5.415-7.205v-14.777h18.883v14.775c0 3.339 2.208 6.276 5.416 7.205 3.555 1.028 7.016 2.438 10.286 4.19 2.915 1.561 6.507 1.03 8.846-1.308l10.391-10.391 13.353 13.353-10.096 10.095c-2.386 2.386-2.885 6.072-1.218 9.007 1.899 3.344 3.434 6.893 4.561 10.547.971 3.145 3.877 5.289 7.167 5.289h14.058v18.883z"/><path d="m424.794 60.565c-15.309 0-27.763 12.454-27.763 27.763s12.454 27.763 27.763 27.763 27.764-12.455 27.764-27.763-12.455-27.763-27.764-27.763zm0 40.526c-7.037 0-12.763-5.726-12.763-12.763s5.726-12.763 12.763-12.763c7.038 0 12.764 5.725 12.764 12.763s-5.726 12.763-12.764 12.763z"/><path d="m376.421 263.238h-15.475c-3.367-10.587-7.787-20.827-13.191-30.564l11.318-11.318c9.348-9.349 9.348-24.561 0-33.911l-34.622-34.621c-9.348-9.349-24.562-9.348-33.911 0l-12.127 12.128c-9.514-4.987-19.48-9.05-29.754-12.127v-17.349c0-13.222-10.757-23.979-23.979-23.979h-48.96c-13.223 0-23.979 10.757-23.979 23.979v17.349c-10.273 3.078-20.24 7.14-29.754 12.127l-12.128-12.128c-9.348-9.349-24.562-9.348-33.911 0l-34.621 34.621c-9.348 9.349-9.348 24.561 0 33.911l11.318 11.318c-5.404 9.737-9.824 19.977-13.191 30.564h-15.475c-13.222 0-23.979 10.757-23.979 23.979v48.96c0 13.222 10.757 23.979 23.979 23.979h13.858c3.16 11.238 7.486 22.117 12.909 32.462l-9.42 9.42c-9.348 9.349-9.348 24.561.001 33.911l4.797 4.796c2.928 2.929 7.677 2.927 10.606 0 2.929-2.929 2.929-7.678-.001-10.607l-4.796-4.795c-3.501-3.501-3.501-9.198 0-12.699l13.39-13.39c2.387-2.387 2.885-6.076 1.216-9.011-7.016-12.338-12.274-25.581-15.629-39.362-.818-3.361-3.828-5.726-7.287-5.726h-19.644c-4.951 0-8.979-4.028-8.979-8.979v-48.96c0-4.951 4.027-8.979 8.979-8.979h21.057c3.361 0 6.312-2.236 7.221-5.472 3.687-13.129 9.134-25.731 16.189-37.458 1.775-2.952 1.313-6.734-1.123-9.17l-15.389-15.387c-3.501-3.501-3.501-9.198 0-12.699l34.62-34.62c3.501-3.501 9.197-3.501 12.698 0l16.098 16.098c2.388 2.388 6.077 2.884 9.011 1.216 11.565-6.577 23.94-11.618 36.781-14.982 3.298-.864 5.599-3.845 5.599-7.255v-23.032c0-4.951 4.028-8.979 8.979-8.979h48.96c4.951 0 8.979 4.028 8.979 8.979v23.032c0 3.41 2.301 6.391 5.599 7.255 12.841 3.365 25.216 8.406 36.781 14.982 2.933 1.668 6.622 1.171 9.011-1.216l16.097-16.098c3.501-3.501 9.197-3.501 12.698 0l34.621 34.62c3.501 3.501 3.501 9.198 0 12.699l-15.389 15.389c-2.436 2.436-2.898 6.218-1.123 9.17 7.056 11.726 12.503 24.329 16.189 37.458.909 3.236 3.859 5.472 7.221 5.472h21.057c4.951 0 8.979 4.028 8.979 8.979v48.96c0 4.951-4.027 8.979-8.979 8.979h-19.645c-3.459 0-6.469 2.365-7.287 5.726-3.356 13.784-8.614 27.027-15.629 39.362-1.669 2.935-1.171 6.624 1.216 9.011l13.39 13.389c3.501 3.501 3.501 9.198 0 12.699l-34.62 34.62c-3.501 3.501-9.196 3.501-12.699 0l-12.681-12.68c-2.434-2.436-6.215-2.899-9.17-1.123-12.494 7.519-25.965 13.2-40.038 16.888-3.298.864-5.599 3.845-5.599 7.255v17.615c0 4.951-4.028 8.979-8.979 8.979h-48.96c-4.951 0-8.979-4.028-8.979-8.979v-17.615c0-3.41-2.3-6.391-5.599-7.255-14.072-3.688-27.544-9.37-40.04-16.888-2.952-1.778-6.734-1.313-9.17 1.123l-12.679 12.68c-3.502 3.501-9.197 3.501-12.699 0l-5.065-5.065c-2.928-2.929-7.677-2.928-10.606 0-2.929 2.929-2.929 7.678.001 10.607l5.065 5.065c9.348 9.348 24.562 9.348 33.911 0l8.608-8.609c10.565 5.864 21.717 10.565 33.272 14.026v11.931c0 13.222 10.757 23.979 23.979 23.979h48.96c13.223 0 23.979-10.757 23.979-23.979v-11.931c11.557-3.461 22.707-8.162 33.271-14.026l8.61 8.609c9.348 9.348 24.562 9.348 33.911 0l34.621-34.621c9.348-9.349 9.348-24.561 0-33.911l-9.42-9.42c5.423-10.344 9.747-21.221 12.908-32.462h13.859c13.222 0 23.979-10.757 23.979-23.979v-48.96c.002-13.223-10.754-23.98-23.976-23.98z"/><path d="m181.013 209.978c-50.395 9.204-86.972 53.122-86.972 104.428 0 58.536 47.622 106.159 106.158 106.159s106.159-47.623 106.159-106.159c0-51.36-36.622-95.287-87.08-104.448-4.08-.739-7.979 1.964-8.719 6.04s1.964 7.979 6.039 8.719c43.318 7.865 74.76 45.584 74.76 89.689 0 50.265-40.894 91.159-91.159 91.159s-91.158-40.894-91.158-91.159c0-44.058 31.402-81.771 74.667-89.672 4.074-.744 6.774-4.65 6.03-8.726-.744-4.075-4.655-6.773-8.725-6.03z"/><path d="m200.199 391.217c52.994 1.337 92.175-56.73 71.297-105.401-11.748-29.291-39.733-48.217-71.297-48.217-41.299-.776-77.644 35.409-76.809 76.809.001 42.352 34.457 76.809 76.809 76.809zm-60.465-89.708c2.734-13.001 9.795-25.05 19.895-33.696l12.69 9.704c1.854 1.418 2.553 3.926 1.698 6.099-.001.002-.002.004-.003.007l-6.759 17.237c-.783 1.998-2.748 3.34-4.89 3.34h-23.12c.149-.901.302-1.801.489-2.691zm122.222 15.4c-.701 23.146-15.544 44.974-36.84 54.086l.703-13.814c.36-7.152-3.229-13.893-9.388-17.604l-3.628-2.169c-2.042-1.226-2.735-3.809-1.58-5.884l18.475-33.166c.771-1.388 2.236-2.25 3.822-2.25h25.715c2.108 6.703 2.995 13.783 2.721 20.801zm-9.659-35.802h-18.776c-7.029 0-13.518 3.817-16.93 9.957l-18.471 33.159c-5.119 9.187-2.062 20.627 6.975 26.051 2.183 1.369 6.155 2.932 5.744 6.148l-.969 19.035c-3.188.502-6.423.759-9.671.759-32.467 0-59.148-25.168-61.605-57.016h23.772c8.389 0 15.789-5.049 18.854-12.864l6.756-17.23c3.293-8.372.602-18.036-6.545-23.502l-8.637-6.604c8.458-4.203 17.768-6.4 27.404-6.4 21.479-.002 40.895 10.889 52.099 28.507z"/><circle cx="62.653" cy="311.7" r="7.452"/></g></g></svg>